<svg width="256" height="181" viewBox="0 0 256 181" fill="none" xmlns="http://www.w3.org/2000/svg">
    <path d="M251.4 9.1664C235.785 -9.15775 191.45 4.13621 171.886 13.2983C216.22 5.39376 241.169 45.635 186.604 68.8097C153.219 83.0019 116.244 86.5949 93.9869 39.8862L91.4736 40.6048C104.397 83.1815 83.5759 102.404 51.8059 113.362L51.2675 111.745C42.8313 80.4868 57.9087 47.6111 87.5248 35.2154C114.807 23.8975 145.501 33.5986 162.911 56.9528C169.911 65.2167 198.63 40.9641 191.81 32.1614C176.553 15.4541 154.834 4.67515 130.244 4.1362C82.858 3.05831 43.5493 40.6048 42.4724 88.0321C42.2928 97.5537 43.5493 106.716 46.2417 115.159V115.338C23.9848 121.446 -12.9905 150.729 4.59965 171.389C20.2154 189.713 64.5499 176.419 84.1144 167.257C39.78 175.162 14.8306 134.92 69.3961 111.745C102.782 97.5537 139.757 93.9607 162.014 140.669L164.526 139.95C151.603 97.3741 172.425 78.1514 204.195 67.1928L204.733 68.8097C213.169 100.069 198.092 132.944 168.476 145.34C141.193 156.658 110.499 146.957 93.0886 123.602C86.0889 115.338 57.3702 139.591 64.1909 148.394C79.4477 165.101 101.166 175.88 125.756 176.419C173.142 177.497 212.451 139.95 213.527 92.5235C213.707 83.0019 212.451 73.8398 209.758 65.3963V65.2167C232.015 59.2883 268.991 30.0056 251.4 9.1664Z" fill="white"/>
</svg>
