<svg width="512" height="512" viewBox="0 0 512 512" fill="none" xmlns="http://www.w3.org/2000/svg">
<rect width="512" height="512" rx="51" fill="#ECFF77"/>
<path d="M239.898 321.056V377.241C239.898 380.974 242.934 384 246.678 384H267.864C271.609 384 274.644 380.974 274.644 377.241V299.512C274.644 285.513 286.027 274.165 300.068 274.165H449.22C452.965 274.165 456 271.139 456 267.406V246.284C456 242.551 452.965 239.525 449.22 239.525H323.373C317.99 239.525 313.627 235.175 313.627 229.809C313.627 227.561 314.392 225.492 315.677 223.846L379.136 161.674C381.807 159.058 381.844 154.779 379.22 152.116L363.776 136.448C361.152 133.786 356.859 133.748 354.189 136.365L288.74 200.486C287.431 201.138 285.953 201.505 284.39 201.505C279.007 201.505 274.644 197.155 274.644 191.789V134.759C274.644 131.026 271.609 128 267.864 128H246.678C242.934 128 239.898 131.026 239.898 134.759V214.178C239.898 228.177 228.516 239.525 214.475 239.525H62.7797C59.0354 239.525 56 242.551 56 246.284V267.406C56 271.139 59.0353 274.165 62.7796 274.165H190.322C195.704 274.165 200.068 278.515 200.068 283.881C200.068 285.198 199.805 286.454 199.329 287.599C199.072 288.218 198.649 288.749 198.17 289.218L135.949 350.178C133.278 352.794 133.241 357.073 135.865 359.736L151.309 375.404C153.933 378.066 158.226 378.104 160.896 375.487L222.227 315.401L224.62 313.056C226.192 311.974 228.098 311.34 230.153 311.34C235.535 311.34 239.898 315.69 239.898 321.056Z" fill="black"/>
</svg>
