<svg width="488" height="309" viewBox="0 0 488 309" fill="none" xmlns="http://www.w3.org/2000/svg">
<path d="M217 234.5V301C217 305.418 220.582 309 225 309H250C254.418 309 258 305.418 258 301V209C258 192.431 271.431 179 288 179H464C468.418 179 472 175.418 472 171V146C472 141.582 468.418 138 464 138H315.5C309.149 138 304 132.851 304 126.5C304 123.84 304.903 121.391 306.419 119.443L381.301 45.8569C384.452 42.7601 384.496 37.6949 381.4 34.5436L363.176 15.9991C360.079 12.8478 355.014 12.8036 351.863 15.9004L274.633 91.7936C273.088 92.5656 271.345 93 269.5 93C263.149 93 258 87.8513 258 81.5V14C258 9.58172 254.418 6 250 6H225C220.582 6 217 9.58172 217 14V108C217 124.569 203.569 138 187 138H8C3.58172 138 0 141.582 0 146V171C0 175.418 3.58171 179 7.99998 179H158.5C164.851 179 170 184.149 170 190.5C170 192.059 169.69 193.545 169.128 194.9C168.825 195.633 168.326 196.261 167.761 196.817L94.3393 268.968C91.188 272.065 91.1438 277.13 94.2406 280.281L112.464 298.826C115.561 301.977 120.626 302.021 123.778 298.924L196.147 227.807L198.972 225.031C200.826 223.75 203.075 223 205.5 223C211.851 223 217 228.149 217 234.5Z" fill="black"/>
<path d="M446.156 46V12.5332H459.341C463.144 12.5332 466.094 13.529 468.19 15.5205C470.302 17.4971 471.357 20.1475 471.357 23.4717C471.357 25.7627 470.841 27.7243 469.808 29.3564C468.789 30.9736 467.329 32.1865 465.428 32.9951L472.548 46H464.731L458.397 34.1406H453.209V46H446.156ZM457.993 18.3281H453.209V28.458H458.016C462.044 28.458 464.058 26.7959 464.058 23.4717C464.058 20.0426 462.036 18.3281 457.993 18.3281Z" fill="black"/>
<path fill-rule="evenodd" clip-rule="evenodd" d="M488 29.5C488 45.7924 474.569 59 458 59C441.431 59 428 45.7924 428 29.5C428 13.2076 441.431 0 458 0C474.569 0 488 13.2076 488 29.5ZM481 29.5C481 41.9264 470.703 52 458 52C445.297 52 435 41.9264 435 29.5C435 17.0736 445.297 7 458 7C470.703 7 481 17.0736 481 29.5ZM446.156 12.5332V46H453.209V34.1406H458.397L464.731 46H472.548L465.428 32.9951C467.329 32.1865 468.789 30.9736 469.808 29.3564C470.841 27.7243 471.357 25.7627 471.357 23.4717C471.357 20.1475 470.302 17.4971 468.19 15.5205C466.094 13.529 463.144 12.5332 459.341 12.5332H446.156ZM453.209 18.3281H457.993C462.036 18.3281 464.058 20.0426 464.058 23.4717C464.058 26.7959 462.044 28.458 458.016 28.458H453.209V18.3281Z" fill="black"/>
</svg>
