<svg width="1882" height="154" viewBox="0 0 1882 154" fill="none" xmlns="http://www.w3.org/2000/svg">
<path d="M1857.46 26.5085V7.22252H1865.06C1867.25 7.22252 1868.95 7.79636 1870.16 8.94402C1871.38 10.0831 1871.99 11.6104 1871.99 13.5261C1871.99 14.8463 1871.69 15.9767 1871.09 16.9173C1870.51 17.8492 1869.66 18.5482 1868.57 19.0141L1872.67 26.5085H1868.17L1864.52 19.6743H1861.53V26.5085H1857.46ZM1864.28 10.562H1861.53V16.3995H1864.3C1866.62 16.3995 1867.78 15.4417 1867.78 13.5261C1867.78 11.55 1866.61 10.562 1864.28 10.562Z" fill="white"/>
<path fill-rule="evenodd" clip-rule="evenodd" d="M1881.58 17C1881.58 26.3888 1873.84 34 1864.29 34C1854.74 34 1847 26.3888 1847 17C1847 7.61116 1854.74 0 1864.29 0C1873.84 0 1881.58 7.61116 1881.58 17ZM1877.54 17C1877.54 24.161 1871.61 29.9661 1864.29 29.9661C1856.97 29.9661 1851.03 24.161 1851.03 17C1851.03 9.83902 1856.97 4.0339 1864.29 4.0339C1871.61 4.0339 1877.54 9.83902 1877.54 17ZM1857.46 7.22252V26.5085H1861.53V19.6743H1864.52L1868.17 26.5085H1872.67L1868.57 19.0141C1869.66 18.5482 1870.51 17.8492 1871.09 16.9173C1871.69 15.9767 1871.99 14.8463 1871.99 13.5261C1871.99 11.6104 1871.38 10.0831 1870.16 8.94402C1868.95 7.79636 1867.25 7.22252 1865.06 7.22252H1857.46ZM1861.53 10.562H1864.28C1866.61 10.562 1867.78 11.55 1867.78 13.5261C1867.78 15.4417 1866.62 16.3995 1864.3 16.3995H1861.53V10.562Z" fill="white"/>
<path d="M295.436 108.3C295.436 122.756 291.224 133.988 282.8 141.996C274.48 150.004 263.092 154.008 248.636 154.008C239.068 154.008 230.488 151.616 222.896 146.832C216.641 142.836 211.693 137.497 208.05 130.816C207.017 128.92 208.46 126.708 210.619 126.708H222.582C223.561 126.708 224.472 127.192 225.069 127.968C230.826 135.448 238.734 139.188 248.792 139.188C258.672 139.188 266.212 136.536 271.412 131.232C276.575 126.069 279.175 118.598 279.212 108.82C279.212 108.706 279.12 108.612 279.005 108.612C278.939 108.612 278.877 108.644 278.838 108.698C272.285 117.689 262.374 122.184 249.104 122.184C236.624 122.184 225.808 117.712 216.656 108.768C207.504 99.72 202.928 88.956 202.928 76.476C202.928 69.82 204.488 63.372 207.608 57.132C211.56 48.916 217.176 42.572 224.456 38.1C231.84 33.524 240.16 31.236 249.416 31.236C254.928 31.236 260.388 32.328 265.796 34.512C268.776 35.6367 271.453 37.035 273.825 38.707C275.879 40.1544 279.212 38.804 279.212 36.2915C279.212 34.7918 280.428 33.576 281.928 33.576H292.436C294.093 33.576 295.436 34.9191 295.436 36.576V108.3ZM279.212 76.944C279.212 62.8 272.972 53.284 260.492 48.396C256.54 46.836 252.744 46.056 249.104 46.056C240.784 46.056 233.712 49.072 227.888 55.104C222.064 61.136 219.152 68.364 219.152 76.788C219.152 85.004 222.064 92.18 227.888 98.316C233.712 104.348 240.732 107.364 248.948 107.364C255.188 107.364 260.7 105.752 265.484 102.528C270.268 99.2 273.908 94.676 276.404 88.956C278.276 84.9 279.212 80.896 279.212 76.944Z" fill="white"/>
<path d="M350.545 44.928C350.545 46.5849 349.197 47.907 347.554 48.1203C344.563 48.5084 341.66 49.4843 338.845 51.048C332.501 54.272 329.329 61.5 329.329 72.732V117C329.329 118.657 327.986 120 326.329 120H316.105C314.449 120 313.105 118.657 313.105 117V36.576C313.105 34.9191 314.449 33.576 316.105 33.576H325.237C326.894 33.576 328.237 34.9191 328.237 36.576V41.1703C328.237 41.2839 328.33 41.376 328.443 41.376C328.51 41.376 328.573 41.3434 328.611 41.2892C332.708 35.5723 338.99 32.2879 347.457 31.436C349.141 31.2665 350.545 32.637 350.545 34.3302V44.928Z" fill="white"/>
<path d="M445.939 117C445.939 118.657 444.596 120 442.939 120H432.715C431.059 120 429.715 118.657 429.715 117V106.781C429.715 106.672 429.627 106.584 429.518 106.584C429.447 106.584 429.382 106.622 429.346 106.684C426.438 111.731 422.349 115.598 417.079 118.284C411.879 120.884 406.211 122.184 400.075 122.184C387.075 122.184 376.155 117.92 367.315 109.392C358.579 100.864 354.211 90.1 354.211 77.1C354.211 63.996 358.579 53.076 367.315 44.34C376.051 35.604 386.971 31.236 400.075 31.236C406.107 31.236 411.723 32.484 416.923 34.98C422.09 37.3567 426.23 40.914 429.343 45.6521C429.381 45.7093 429.445 45.744 429.513 45.744C429.625 45.744 429.715 45.6534 429.715 45.5416V36.576C429.715 34.9191 431.059 33.576 432.715 33.576H442.939C444.596 33.576 445.939 34.9191 445.939 36.576V117ZM430.027 76.944C430.027 68.208 427.219 60.876 421.603 54.948C415.987 49.02 408.811 46.056 400.075 46.056C391.651 46.056 384.579 49.072 378.859 55.104C373.243 61.136 370.435 68.416 370.435 76.944C370.435 85.16 373.295 92.284 379.015 98.316C384.735 104.348 391.703 107.364 399.919 107.364C408.343 107.364 415.467 104.4 421.291 98.472C427.115 92.544 430.027 85.368 430.027 76.944Z" fill="white"/>
<path d="M557.462 77.88C557.462 90.152 553.25 100.604 544.826 109.236C536.506 117.868 526.158 122.184 513.782 122.184C507.542 122.184 501.614 120.988 495.998 118.596C490.523 116.117 486.33 112.457 483.421 107.617C483.384 107.557 483.319 107.52 483.249 107.52C483.139 107.52 483.05 107.609 483.05 107.719V145.86C483.05 147.517 481.707 148.86 480.05 148.86H469.826C468.169 148.86 466.826 147.517 466.826 145.86V36.576C466.826 34.9192 468.17 33.576 469.826 33.576H478.646C480.303 33.576 481.646 34.9191 481.646 36.576V46.6308C481.646 46.7441 481.738 46.836 481.852 46.836C481.919 46.836 481.982 46.8028 482.02 46.7481C489.296 36.4067 499.52 31.236 512.69 31.236C525.794 31.236 536.506 35.708 544.826 44.652C553.25 53.596 557.462 64.672 557.462 77.88ZM541.238 76.944C541.238 68.624 538.326 61.396 532.502 55.26C526.782 49.124 519.814 46.056 511.598 46.056C503.382 46.056 496.518 49.072 491.006 55.104C485.494 61.136 482.738 68.312 482.738 76.632C482.738 85.16 485.494 92.44 491.006 98.472C496.622 104.4 503.642 107.364 512.066 107.364C520.386 107.364 527.302 104.4 532.814 98.472C538.43 92.544 541.238 85.368 541.238 76.944Z" fill="white"/>
<path d="M647.248 117C647.248 118.657 645.905 120 644.248 120H634.024C632.367 120 631.024 118.657 631.024 117V73.044C631.024 55.052 623.848 46.056 609.496 46.056C601.904 46.056 596.184 48.604 592.336 53.7C588.592 58.692 586.72 65.088 586.72 72.888V117C586.72 118.657 585.377 120 583.72 120H573.496C571.839 120 570.496 118.657 570.496 117V7.56C570.496 5.90315 571.839 4.56 573.496 4.56H583.72C585.377 4.56 586.72 5.90314 586.72 7.56V42.577C586.72 42.6891 586.811 42.78 586.923 42.78C586.991 42.78 587.054 42.7454 587.092 42.6888C592.191 35.0536 600.231 31.236 611.212 31.236C625.044 31.236 635.236 36.384 641.788 46.68C645.428 52.296 647.248 59.68 647.248 68.832V117Z" fill="white"/>
<path d="M680.799 20.592C680.799 22.2488 679.456 23.592 677.799 23.592H667.575C665.918 23.592 664.575 22.2488 664.575 20.592V7.56C664.575 5.90315 665.918 4.56 667.575 4.56H677.799C679.456 4.56 680.799 5.90314 680.799 7.56V20.592ZM680.799 117C680.799 118.657 679.456 120 677.799 120H667.575C665.918 120 664.575 118.657 664.575 117V36.576C664.575 34.9191 665.918 33.576 667.575 33.576H677.799C679.456 33.576 680.799 34.9191 680.799 36.576V117Z" fill="white"/>
<path d="M776.788 91.452C778.848 91.452 780.294 93.4834 779.466 95.3704C776.156 102.925 771.205 109.107 764.615 113.916C757.023 119.428 748.286 122.184 738.406 122.184C725.719 122.184 715.163 117.816 706.739 109.08C698.315 100.24 694.103 89.424 694.103 76.632C694.103 63.944 698.315 53.232 706.739 44.496C715.267 35.656 725.875 31.236 738.562 31.236C748.13 31.236 756.971 34.148 765.083 39.972C772.146 44.979 777.057 51.1776 779.816 58.5675C780.504 60.4117 779.067 62.28 777.098 62.28H764.941C763.788 62.28 762.745 61.6123 762.198 60.5969C756.982 50.903 749.155 46.056 738.719 46.056C730.086 46.056 723.171 48.968 717.971 54.792C712.875 60.616 710.327 67.896 710.327 76.632C710.327 85.16 712.875 92.44 717.971 98.472C723.171 104.4 729.982 107.364 738.406 107.364C743.919 107.364 748.807 105.96 753.07 103.152C756.83 100.676 759.822 97.3513 762.045 93.1776C762.597 92.1423 763.651 91.452 764.824 91.452H776.788Z" fill="white"/>
<path d="M880.515 117C880.515 118.657 879.172 120 877.515 120H867.291C865.634 120 864.291 118.657 864.291 117V106.781C864.291 106.672 864.203 106.584 864.094 106.584C864.023 106.584 863.957 106.622 863.922 106.684C861.014 111.731 856.925 115.598 851.655 118.284C846.455 120.884 840.787 122.184 834.651 122.184C821.651 122.184 810.731 117.92 801.891 109.392C793.155 100.864 788.787 90.1 788.787 77.1C788.787 63.996 793.155 53.076 801.891 44.34C810.627 35.604 821.547 31.236 834.651 31.236C840.683 31.236 846.299 32.484 851.499 34.98C856.666 37.3567 860.806 40.914 863.919 45.6521C863.957 45.7093 864.02 45.744 864.089 45.744C864.201 45.744 864.291 45.6534 864.291 45.5416V36.576C864.291 34.9191 865.634 33.576 867.291 33.576H877.515C879.172 33.576 880.515 34.9191 880.515 36.576V117ZM864.603 76.944C864.603 68.208 861.795 60.876 856.179 54.948C850.563 49.02 843.387 46.056 834.651 46.056C826.227 46.056 819.155 49.072 813.435 55.104C807.819 61.136 805.011 68.416 805.011 76.944C805.011 85.16 807.871 92.284 813.591 98.316C819.311 104.348 826.279 107.364 834.495 107.364C842.919 107.364 850.043 104.4 855.867 98.472C861.691 92.544 864.603 85.368 864.603 76.944Z" fill="white"/>
<path d="M915.341 117C915.341 118.657 913.998 120 912.341 120H902.117C900.46 120 899.117 118.657 899.117 117V7.56C899.117 5.90315 900.46 4.56 902.117 4.56H912.341C913.998 4.56 915.341 5.90314 915.341 7.56V117Z" fill="white"/>
<path d="M1066.69 77.88C1066.69 90.152 1062.48 100.604 1054.06 109.236C1045.74 117.868 1035.39 122.184 1023.01 122.184C1016.77 122.184 1010.84 120.988 1005.23 118.596C999.753 116.117 995.561 112.457 992.651 107.617C992.615 107.557 992.55 107.52 992.48 107.52C992.37 107.52 992.281 107.609 992.281 107.719V145.86C992.281 147.517 990.938 148.86 989.281 148.86H979.057C977.4 148.86 976.057 147.517 976.057 145.86V36.576C976.057 34.9192 977.4 33.576 979.057 33.576H987.877C989.534 33.576 990.877 34.9191 990.877 36.576V46.6308C990.877 46.7441 990.969 46.836 991.082 46.836C991.149 46.836 991.212 46.8028 991.25 46.7481C998.526 36.4067 1008.75 31.236 1021.92 31.236C1035.02 31.236 1045.74 35.708 1054.06 44.652C1062.48 53.596 1066.69 64.672 1066.69 77.88ZM1050.47 76.944C1050.47 68.624 1047.56 61.396 1041.73 55.26C1036.01 49.124 1029.04 46.056 1020.83 46.056C1012.61 46.056 1005.75 49.072 1000.24 55.104C994.725 61.136 991.969 68.312 991.969 76.632C991.969 85.16 994.725 92.44 1000.24 98.472C1005.85 104.4 1012.87 107.364 1021.3 107.364C1029.62 107.364 1036.53 104.4 1042.04 98.472C1047.66 92.544 1050.47 85.368 1050.47 76.944Z" fill="white"/>
<path d="M1096.11 117C1096.11 118.657 1094.76 120 1093.11 120H1082.88C1081.23 120 1079.88 118.657 1079.88 117V7.56C1079.88 5.90315 1081.23 4.56 1082.88 4.56H1093.11C1094.76 4.56 1096.11 5.90314 1096.11 7.56V117Z" fill="white"/>
<path d="M1201.14 117C1201.14 118.657 1199.79 120 1198.14 120H1187.91C1186.26 120 1184.91 118.657 1184.91 117V106.781C1184.91 106.672 1184.83 106.584 1184.72 106.584C1184.65 106.584 1184.58 106.622 1184.54 106.684C1181.64 111.731 1177.55 115.598 1172.28 118.284C1167.08 120.884 1161.41 122.184 1155.27 122.184C1142.27 122.184 1131.35 117.92 1122.51 109.392C1113.78 100.864 1109.41 90.1 1109.41 77.1C1109.41 63.996 1113.78 53.076 1122.51 44.34C1131.25 35.604 1142.17 31.236 1155.27 31.236C1161.31 31.236 1166.92 32.484 1172.12 34.98C1177.29 37.3567 1181.43 40.914 1184.54 45.6521C1184.58 45.7093 1184.64 45.744 1184.71 45.744C1184.82 45.744 1184.91 45.6534 1184.91 45.5416V36.576C1184.91 34.9191 1186.26 33.576 1187.91 33.576H1198.14C1199.79 33.576 1201.14 34.9191 1201.14 36.576V117ZM1185.23 76.944C1185.23 68.208 1182.42 60.876 1176.8 54.948C1171.19 49.02 1164.01 46.056 1155.27 46.056C1146.85 46.056 1139.78 49.072 1134.06 55.104C1128.44 61.136 1125.63 68.416 1125.63 76.944C1125.63 85.16 1128.49 92.284 1134.21 98.316C1139.93 104.348 1146.9 107.364 1155.12 107.364C1163.54 107.364 1170.67 104.4 1176.49 98.472C1182.31 92.544 1185.23 85.368 1185.23 76.944Z" fill="white"/>
<path d="M1292.02 33.576C1294.16 33.576 1295.61 35.7485 1294.79 37.7237L1249.54 147.008C1249.08 148.129 1247.98 148.86 1246.77 148.86H1236.41C1234.27 148.86 1232.82 146.689 1233.64 144.714L1244.09 119.421C1244.39 118.692 1244.4 117.875 1244.1 117.144L1211.77 37.7069C1210.96 35.7339 1212.42 33.576 1214.55 33.576H1225.49C1226.73 33.576 1227.85 34.3469 1228.29 35.5126L1250.21 93.3453C1251.19 95.9163 1254.82 95.931 1255.82 93.368L1278.29 35.4899C1278.74 34.3361 1279.85 33.576 1281.09 33.576H1292.02Z" fill="white"/>
<path d="M1390.37 108.3C1390.37 122.756 1386.16 133.988 1377.74 141.996C1369.42 150.004 1358.03 154.008 1343.57 154.008C1334.01 154.008 1325.43 151.616 1317.83 146.832C1311.58 142.836 1306.63 137.497 1302.99 130.816C1301.95 128.92 1303.4 126.708 1305.56 126.708H1317.52C1318.5 126.708 1319.41 127.192 1320.01 127.968C1325.76 135.448 1333.67 139.188 1343.73 139.188C1353.61 139.188 1361.15 136.536 1366.35 131.232C1371.51 126.069 1374.11 118.598 1374.15 108.82C1374.15 108.706 1374.06 108.612 1373.94 108.612C1373.88 108.612 1373.81 108.644 1373.77 108.698C1367.22 117.689 1357.31 122.184 1344.04 122.184C1331.56 122.184 1320.75 117.712 1311.59 108.768C1302.44 99.72 1297.87 88.956 1297.87 76.476C1297.87 69.82 1299.43 63.372 1302.55 57.132C1306.5 48.916 1312.11 42.572 1319.39 38.1C1326.78 33.524 1335.1 31.236 1344.35 31.236C1349.87 31.236 1355.33 32.328 1360.73 34.512C1363.71 35.6367 1366.39 37.035 1368.76 38.707C1370.82 40.1544 1374.15 38.804 1374.15 36.2915C1374.15 34.7918 1375.36 33.576 1376.86 33.576H1387.37C1389.03 33.576 1390.37 34.9191 1390.37 36.576V108.3ZM1374.15 76.944C1374.15 62.8 1367.91 53.284 1355.43 48.396C1351.48 46.836 1347.68 46.056 1344.04 46.056C1335.72 46.056 1328.65 49.072 1322.83 55.104C1317 61.136 1314.09 68.364 1314.09 76.788C1314.09 85.004 1317 92.18 1322.83 98.316C1328.65 104.348 1335.67 107.364 1343.89 107.364C1350.13 107.364 1355.64 105.752 1360.42 102.528C1365.21 99.2 1368.85 94.676 1371.34 88.956C1373.21 84.9 1374.15 80.896 1374.15 76.944Z" fill="white"/>
<path d="M1445.48 44.928C1445.48 46.5849 1444.13 47.907 1442.49 48.1203C1439.5 48.5084 1436.6 49.4843 1433.78 51.048C1427.44 54.272 1424.27 61.5 1424.27 72.732V117C1424.27 118.657 1422.92 120 1421.27 120H1411.04C1409.39 120 1408.04 118.657 1408.04 117V36.576C1408.04 34.9191 1409.39 33.576 1411.04 33.576H1420.17C1421.83 33.576 1423.17 34.9191 1423.17 36.576V41.1703C1423.17 41.2839 1423.27 41.376 1423.38 41.376C1423.45 41.376 1423.51 41.3434 1423.55 41.2892C1427.65 35.5723 1433.93 32.2879 1442.39 31.436C1444.08 31.2665 1445.48 32.637 1445.48 34.3302V44.928Z" fill="white"/>
<path d="M1542.44 76.476C1542.44 88.956 1537.91 99.72 1528.86 108.768C1519.82 117.712 1508.79 122.184 1495.79 122.184C1483 122.184 1472.03 117.712 1462.88 108.768C1453.72 99.72 1449.15 88.852 1449.15 76.164C1449.15 63.58 1453.72 52.972 1462.88 44.34C1472.13 35.604 1483.1 31.236 1495.79 31.236C1508.58 31.236 1519.56 35.604 1528.71 44.34C1537.86 53.076 1542.44 63.788 1542.44 76.476ZM1517.32 98.316C1523.25 92.18 1526.21 84.9 1526.21 76.476C1526.21 68.052 1523.25 60.876 1517.32 54.948C1511.39 49.02 1504.22 46.056 1495.79 46.056C1487.37 46.056 1480.19 49.072 1474.26 55.104C1468.34 61.032 1465.37 68.208 1465.37 76.632C1465.37 85.056 1468.34 92.284 1474.26 98.316C1480.19 104.348 1487.37 107.364 1495.79 107.364C1504.22 107.364 1511.39 104.348 1517.32 98.316Z" fill="white"/>
<path d="M1630.74 117C1630.74 118.657 1629.4 120 1627.74 120H1618.92C1617.26 120 1615.92 118.657 1615.92 117V110.838C1615.92 110.729 1615.83 110.64 1615.72 110.64C1615.65 110.64 1615.58 110.678 1615.55 110.739C1613.26 114.641 1609.74 117.52 1605 119.376C1600.32 121.248 1595.38 122.184 1590.18 122.184C1580.4 122.184 1572.19 119.324 1565.53 113.604C1557.94 107.052 1554.14 95.976 1554.14 80.376V36.576C1554.14 34.9191 1555.49 33.576 1557.14 33.576H1567.37C1569.02 33.576 1570.37 34.9191 1570.37 36.576V80.376C1570.37 88.8 1571.98 95.404 1575.2 100.188C1578.43 104.972 1583.99 107.364 1591.89 107.364C1599.69 107.364 1605.41 104.816 1609.05 99.72C1612.69 94.624 1614.51 88.02 1614.51 79.908V36.576C1614.51 34.9191 1615.86 33.576 1617.51 33.576H1627.74C1629.4 33.576 1630.74 34.9191 1630.74 36.576V117Z" fill="white"/>
<path d="M1725.12 117C1725.12 118.657 1723.78 120 1722.12 120H1711.9C1710.24 120 1708.9 118.657 1708.9 117V73.044C1708.9 55.052 1701.72 46.056 1687.37 46.056C1679.78 46.056 1674.06 48.604 1670.21 53.7C1666.47 58.692 1664.59 65.088 1664.59 72.888V117C1664.59 118.657 1663.25 120 1661.59 120H1651.37C1649.71 120 1648.37 118.657 1648.37 117V36.576C1648.37 34.9191 1649.71 33.576 1651.37 33.576H1660.5C1662.16 33.576 1663.5 34.9191 1663.5 36.576V42.5716C1663.5 42.6867 1663.6 42.78 1663.71 42.78C1663.78 42.78 1663.84 42.749 1663.88 42.6971C1669.7 35.0564 1678.1 31.236 1689.09 31.236C1702.92 31.236 1713.11 36.384 1719.66 46.68C1723.3 52.296 1725.12 59.68 1725.12 68.832V117Z" fill="white"/>
<path d="M1829.02 117C1829.02 118.657 1827.68 120 1826.02 120H1817.05C1815.39 120 1814.05 118.657 1814.05 117V107.882C1814.05 107.768 1813.95 107.676 1813.84 107.676C1813.77 107.676 1813.71 107.708 1813.67 107.762C1806.71 117.377 1796.53 122.184 1783.16 122.184C1770.26 122.184 1759.55 117.92 1751.02 109.392C1742.49 100.76 1738.23 89.996 1738.23 77.1C1738.23 64.1 1742.44 53.232 1750.87 44.496C1759.39 35.656 1770.16 31.236 1783.16 31.236C1788.88 31.236 1794.34 32.38 1799.54 34.668C1804.81 36.8381 1809.1 39.9838 1812.42 44.105C1812.46 44.1548 1812.52 44.184 1812.59 44.184C1812.7 44.184 1812.8 44.0896 1812.8 43.9733V7.56C1812.8 5.90314 1814.14 4.56 1815.8 4.56H1826.02C1827.68 4.56 1829.02 5.90314 1829.02 7.56V117ZM1814.05 76.944C1814.05 68.208 1811.24 60.876 1805.62 54.948C1800.01 49.02 1792.83 46.056 1784.09 46.056C1775.67 46.056 1768.6 49.072 1762.88 55.104C1757.26 61.136 1754.45 68.416 1754.45 76.944C1754.45 85.16 1757.31 92.284 1763.03 98.316C1768.75 104.348 1775.72 107.364 1783.94 107.364C1792.36 107.364 1799.49 104.4 1805.31 98.472C1811.13 92.544 1814.05 85.368 1814.05 76.944Z" fill="white"/>
<path d="M85.9725 113.495V139.832C85.9725 141.581 87.3915 143 89.142 143H99.0466C100.797 143 102.216 141.581 102.216 139.832V103.396C102.216 96.8342 107.537 91.5149 114.102 91.5149H183.831C185.581 91.5149 187 90.0963 187 88.3465V78.4455C187 76.6957 185.581 75.2772 183.831 75.2772H124.997C122.481 75.2772 120.441 73.2381 120.441 70.7228C120.441 69.6693 120.798 68.6994 121.399 67.9279L151.066 38.7849C152.315 37.5584 152.332 35.5525 151.105 34.3044L143.885 26.96C142.659 25.712 140.652 25.6945 139.403 26.9209L108.806 56.9777C108.194 57.2834 107.503 57.4554 106.772 57.4554C104.256 57.4554 102.216 55.4163 102.216 52.901V26.1683C102.216 24.4185 100.797 23 99.0466 23H89.142C87.3915 23 85.9725 24.4185 85.9725 26.1683V63.396C85.9725 69.9578 80.6511 75.2772 74.0869 75.2772H3.16949C1.41903 75.2772 0 76.6957 0 78.4455V88.3465C0 90.0963 1.41902 91.5149 3.16949 91.5149H62.7956C65.3118 91.5149 67.3517 93.5539 67.3517 96.0693C67.3517 96.6866 67.2289 97.2752 67.0063 97.812C66.886 98.102 66.6885 98.3511 66.4645 98.5711L37.376 127.146C36.1274 128.372 36.1099 130.378 37.3369 131.626L44.5568 138.971C45.7837 140.219 47.7905 140.236 49.039 139.01L77.711 110.844L78.8299 109.745C79.5646 109.238 80.4557 108.941 81.4163 108.941C83.9326 108.941 85.9725 110.98 85.9725 113.495Z" fill="white"/>
</svg>
