<svg width="779" height="154" viewBox="0 0 779 154" fill="none" xmlns="http://www.w3.org/2000/svg">
<path d="M754.591 26.5085V7.22252H762.282C764.501 7.22252 766.221 7.79636 767.444 8.94402C768.676 10.0831 769.292 11.6104 769.292 13.5261C769.292 14.8463 768.99 15.9767 768.388 16.9173C767.794 17.8492 766.942 18.5482 765.833 19.0141L769.986 26.5085H765.427L761.732 19.6743H758.705V26.5085H754.591ZM761.496 10.562H758.705V16.3995H761.509C763.859 16.3995 765.034 15.4417 765.034 13.5261C765.034 11.55 763.854 10.562 761.496 10.562Z" fill="black"/>
<path fill-rule="evenodd" clip-rule="evenodd" d="M779 17C779 26.3888 771.165 34 761.5 34C751.835 34 744 26.3888 744 17C744 7.61116 751.835 0 761.5 0C771.165 0 779 7.61116 779 17ZM774.917 17C774.917 24.161 768.91 29.9661 761.5 29.9661C754.09 29.9661 748.083 24.161 748.083 17C748.083 9.83902 754.09 4.0339 761.5 4.0339C768.91 4.0339 774.917 9.83902 774.917 17ZM754.591 7.22252V26.5085H758.705V19.6743H761.732L765.427 26.5085H769.986L765.833 19.0141C766.942 18.5482 767.794 17.8492 768.388 16.9173C768.99 15.9767 769.292 14.8463 769.292 13.5261C769.292 11.6104 768.676 10.0831 767.444 8.94402C766.221 7.79636 764.501 7.22252 762.282 7.22252H754.591ZM758.705 10.562H761.496C763.854 10.562 765.034 11.55 765.034 13.5261C765.034 15.4417 763.859 16.3995 761.509 16.3995H758.705V10.562Z" fill="black"/>
<path d="M295.436 108.3C295.436 122.756 291.224 133.988 282.8 141.996C274.48 150.004 263.092 154.008 248.636 154.008C239.068 154.008 230.488 151.616 222.896 146.832C216.641 142.836 211.693 137.497 208.05 130.816C207.017 128.92 208.46 126.708 210.619 126.708H222.582C223.561 126.708 224.472 127.192 225.069 127.968C230.826 135.448 238.734 139.188 248.792 139.188C258.672 139.188 266.212 136.536 271.412 131.232C276.575 126.069 279.175 118.598 279.212 108.82C279.212 108.706 279.12 108.612 279.005 108.612C278.939 108.612 278.877 108.644 278.838 108.698C272.285 117.689 262.374 122.184 249.104 122.184C236.624 122.184 225.808 117.712 216.656 108.768C207.504 99.72 202.928 88.956 202.928 76.476C202.928 69.82 204.488 63.372 207.608 57.132C211.56 48.916 217.176 42.572 224.456 38.1C231.84 33.524 240.16 31.236 249.416 31.236C254.928 31.236 260.388 32.328 265.796 34.512C268.776 35.6367 271.453 37.035 273.825 38.707C275.879 40.1544 279.212 38.804 279.212 36.2915C279.212 34.7918 280.428 33.576 281.928 33.576H292.436C294.093 33.576 295.436 34.9191 295.436 36.576V108.3ZM279.212 76.944C279.212 62.8 272.972 53.284 260.492 48.396C256.54 46.836 252.744 46.056 249.104 46.056C240.784 46.056 233.712 49.072 227.888 55.104C222.064 61.136 219.152 68.364 219.152 76.788C219.152 85.004 222.064 92.18 227.888 98.316C233.712 104.348 240.732 107.364 248.948 107.364C255.188 107.364 260.7 105.752 265.484 102.528C270.268 99.2 273.908 94.676 276.404 88.956C278.276 84.9 279.212 80.896 279.212 76.944Z" fill="black"/>
<path d="M403.741 77.88C403.741 90.152 399.529 100.604 391.105 109.236C382.785 117.868 372.437 122.184 360.061 122.184C353.821 122.184 347.893 120.988 342.277 118.596C336.802 116.117 332.609 112.457 329.7 107.617C329.663 107.557 329.598 107.52 329.528 107.52C329.419 107.52 329.329 107.609 329.329 107.719V145.86C329.329 147.517 327.986 148.86 326.329 148.86H316.105C314.449 148.86 313.105 147.517 313.105 145.86V36.576C313.105 34.9192 314.449 33.576 316.105 33.576H324.925C326.582 33.576 327.925 34.9191 327.925 36.576V46.6308C327.925 46.7441 328.017 46.836 328.131 46.836C328.198 46.836 328.261 46.8028 328.299 46.7481C335.575 36.4067 345.799 31.236 358.969 31.236C372.073 31.236 382.785 35.708 391.105 44.652C399.529 53.596 403.741 64.672 403.741 77.88ZM387.517 76.944C387.517 68.624 384.605 61.396 378.781 55.26C373.061 49.124 366.093 46.056 357.877 46.056C349.661 46.056 342.797 49.072 337.285 55.104C331.773 61.136 329.017 68.312 329.017 76.632C329.017 85.16 331.773 92.44 337.285 98.472C342.901 104.4 349.921 107.364 358.345 107.364C366.665 107.364 373.581 104.4 379.093 98.472C384.709 92.544 387.517 85.368 387.517 76.944Z" fill="black"/>
<path d="M433.155 117C433.155 118.657 431.812 120 430.155 120H419.931C418.274 120 416.931 118.657 416.931 117V7.56C416.931 5.90315 418.274 4.56 419.931 4.56H430.155C431.812 4.56 433.155 5.90314 433.155 7.56V117Z" fill="black"/>
<path d="M538.187 117C538.187 118.657 536.844 120 535.187 120H524.963C523.306 120 521.963 118.657 521.963 117V106.781C521.963 106.672 521.874 106.584 521.765 106.584C521.694 106.584 521.629 106.622 521.594 106.684C518.685 111.731 514.596 115.598 509.327 118.284C504.127 120.884 498.459 122.184 492.323 122.184C479.323 122.184 468.403 117.92 459.563 109.392C450.827 100.864 446.459 90.1 446.459 77.1C446.459 63.996 450.827 53.076 459.563 44.34C468.299 35.604 479.219 31.236 492.323 31.236C498.355 31.236 503.971 32.484 509.171 34.98C514.337 37.3567 518.477 40.914 521.59 45.6521C521.628 45.7093 521.692 45.744 521.76 45.744C521.872 45.744 521.963 45.6534 521.963 45.5416V36.576C521.963 34.9191 523.306 33.576 524.963 33.576H535.187C536.844 33.576 538.187 34.9191 538.187 36.576V117ZM522.275 76.944C522.275 68.208 519.467 60.876 513.851 54.948C508.235 49.02 501.059 46.056 492.323 46.056C483.899 46.056 476.827 49.072 471.107 55.104C465.491 61.136 462.683 68.416 462.683 76.944C462.683 85.16 465.543 92.284 471.263 98.316C476.983 104.348 483.951 107.364 492.167 107.364C500.591 107.364 507.715 104.4 513.539 98.472C519.363 92.544 522.275 85.368 522.275 76.944Z" fill="black"/>
<path d="M629.069 33.576C631.207 33.576 632.659 35.7485 631.841 37.7237L586.59 147.008C586.125 148.129 585.031 148.86 583.818 148.86H573.461C571.324 148.86 569.872 146.689 570.688 144.714L581.141 119.421C581.442 118.692 581.444 117.875 581.147 117.144L548.816 37.7069C548.013 35.734 549.464 33.576 551.595 33.576H562.536C563.782 33.576 564.899 34.3469 565.341 35.5126L587.263 93.3453C588.238 95.9163 591.87 95.931 592.865 93.368L615.343 35.4899C615.792 34.3361 616.902 33.576 618.14 33.576H629.069Z" fill="black"/>
<path d="M725.706 117C725.706 118.657 724.363 120 722.706 120H713.73C712.073 120 710.73 118.657 710.73 117V107.882C710.73 107.768 710.638 107.676 710.524 107.676C710.457 107.676 710.395 107.708 710.356 107.762C703.389 117.377 693.218 122.184 679.842 122.184C666.946 122.184 656.234 117.92 647.706 109.392C639.178 100.76 634.914 89.996 634.914 77.1C634.914 64.1 639.126 53.232 647.55 44.496C656.078 35.656 666.842 31.236 679.842 31.236C685.562 31.236 691.022 32.38 696.222 34.668C701.492 36.8381 705.787 39.9838 709.107 44.105C709.147 44.1548 709.207 44.184 709.271 44.184C709.388 44.184 709.482 44.0897 709.482 43.9733V7.56C709.482 5.90314 710.825 4.56 712.482 4.56H722.706C724.363 4.56 725.706 5.90314 725.706 7.56V117ZM710.73 76.944C710.73 68.208 707.922 60.876 702.306 54.948C696.69 49.02 689.514 46.056 680.778 46.056C672.354 46.056 665.282 49.072 659.562 55.104C653.946 61.136 651.138 68.416 651.138 76.944C651.138 85.16 653.998 92.284 659.718 98.316C665.438 104.348 672.406 107.364 680.622 107.364C689.046 107.364 696.17 104.4 701.994 98.472C707.818 92.544 710.73 85.368 710.73 76.944Z" fill="black"/>
<path d="M85.9725 113.495V139.832C85.9725 141.581 87.3915 143 89.142 143H99.0466C100.797 143 102.216 141.581 102.216 139.832V103.396C102.216 96.8342 107.537 91.5149 114.102 91.5149H183.831C185.581 91.5149 187 90.0963 187 88.3465V78.4455C187 76.6957 185.581 75.2772 183.831 75.2772H124.997C122.481 75.2772 120.441 73.2381 120.441 70.7228C120.441 69.6693 120.798 68.6994 121.399 67.9279L151.066 38.7849C152.315 37.5584 152.332 35.5525 151.105 34.3044L143.885 26.96C142.659 25.712 140.652 25.6945 139.403 26.9209L108.806 56.9777C108.194 57.2834 107.503 57.4554 106.772 57.4554C104.256 57.4554 102.216 55.4163 102.216 52.901V26.1683C102.216 24.4185 100.797 23 99.0466 23H89.142C87.3915 23 85.9725 24.4185 85.9725 26.1683V63.396C85.9725 69.9578 80.6511 75.2772 74.0869 75.2772H3.16949C1.41903 75.2772 0 76.6957 0 78.4455V88.3465C0 90.0963 1.41902 91.5149 3.16949 91.5149H62.7956C65.3118 91.5149 67.3517 93.5539 67.3517 96.0693C67.3517 96.6866 67.2289 97.2752 67.0063 97.812C66.886 98.102 66.6885 98.3511 66.4645 98.5711L37.376 127.146C36.1274 128.372 36.1099 130.378 37.3369 131.626L44.5568 138.971C45.7837 140.219 47.7905 140.236 49.039 139.01L77.711 110.844L78.8299 109.745C79.5646 109.238 80.4557 108.941 81.4163 108.941C83.9326 108.941 85.9725 110.98 85.9725 113.495Z" fill="black"/>
</svg>
